<svg id="visual" viewBox="0 0 1920 1920" width="1920" height="1920" xmlns="http://www.w3.org/2000/svg" xmlns:xlink="http://www.w3.org/1999/xlink" version="1.1"><rect x="0" y="0" width="1920" height="1920" fill="#f87060"></rect><defs><linearGradient id="grad1_0" x1="0%" y1="0%" x2="100%" y2="100%"><stop offset="30%" stop-color="#102542" stop-opacity="1"></stop><stop offset="70%" stop-color="#102542" stop-opacity="1"></stop></linearGradient></defs><defs><linearGradient id="grad1_1" x1="0%" y1="0%" x2="100%" y2="100%"><stop offset="30%" stop-color="#102542" stop-opacity="1"></stop><stop offset="70%" stop-color="#5d3b6e" stop-opacity="1"></stop></linearGradient></defs><defs><linearGradient id="grad1_2" x1="0%" y1="0%" x2="100%" y2="100%"><stop offset="30%" stop-color="#b54b78" stop-opacity="1"></stop><stop offset="70%" stop-color="#5d3b6e" stop-opacity="1"></stop></linearGradient></defs><defs><linearGradient id="grad1_3" x1="0%" y1="0%" x2="100%" y2="100%"><stop offset="30%" stop-color="#b54b78" stop-opacity="1"></stop><stop offset="70%" stop-color="#f87060" stop-opacity="1"></stop></linearGradient></defs><defs><linearGradient id="grad2_0" x1="0%" y1="0%" x2="100%" y2="100%"><stop offset="30%" stop-color="#102542" stop-opacity="1"></stop><stop offset="70%" stop-color="#102542" stop-opacity="1"></stop></linearGradient></defs><defs><linearGradient id="grad2_1" x1="0%" y1="0%" x2="100%" y2="100%"><stop offset="30%" stop-color="#5d3b6e" stop-opacity="1"></stop><stop offset="70%" stop-color="#102542" stop-opacity="1"></stop></linearGradient></defs><defs><linearGradient id="grad2_2" x1="0%" y1="0%" x2="100%" y2="100%"><stop offset="30%" stop-color="#5d3b6e" stop-opacity="1"></stop><stop offset="70%" stop-color="#b54b78" stop-opacity="1"></stop></linearGradient></defs><defs><linearGradient id="grad2_3" x1="0%" y1="0%" x2="100%" y2="100%"><stop offset="30%" stop-color="#f87060" stop-opacity="1"></stop><stop offset="70%" stop-color="#b54b78" stop-opacity="1"></stop></linearGradient></defs><g transform="translate(1920, 0)"><path d="M0 1086.1C-192.6 1059.3 -385.3 1032.4 -543.1 940.6C-700.8 848.8 -823.8 692.1 -908.5 524.5C-993.2 356.9 -1039.6 178.5 -1086.1 0L0 0Z" fill="#db596f"></path><path d="M0 814.6C-144.5 794.4 -289 774.3 -407.3 705.5C-525.6 636.6 -617.8 519.1 -681.3 393.4C-744.9 267.7 -779.7 133.8 -814.6 0L0 0Z" fill="#8a4378"></path><path d="M0 543.1C-96.3 529.6 -192.6 516.2 -271.5 470.3C-350.4 424.4 -411.9 346 -454.2 262.3C-496.6 178.5 -519.8 89.2 -543.1 0L0 0Z" fill="#34325b"></path><path d="M0 271.5C-48.2 264.8 -96.3 258.1 -135.8 235.2C-175.2 212.2 -205.9 173 -227.1 131.1C-248.3 89.2 -259.9 44.6 -271.5 0L0 0Z" fill="#102542"></path></g><g transform="translate(0, 1920)"><path d="M0 -1086.1C199.9 -1063.5 399.8 -1040.8 543.1 -940.6C686.3 -840.4 772.8 -662.7 853.9 -493C935 -323.3 1010.5 -161.7 1086.1 0L0 0Z" fill="#db596f"></path><path d="M0 -814.6C149.9 -797.6 299.9 -780.6 407.3 -705.5C514.7 -630.3 579.6 -497 640.4 -369.8C701.2 -242.5 757.9 -121.2 814.6 0L0 0Z" fill="#8a4378"></path><path d="M0 -543.1C100 -531.7 199.9 -520.4 271.5 -470.3C343.1 -420.2 386.4 -331.3 427 -246.5C467.5 -161.7 505.3 -80.8 543.1 0L0 0Z" fill="#34325b"></path><path d="M0 -271.5C50 -265.9 100 -260.2 135.8 -235.2C171.6 -210.1 193.2 -165.7 213.5 -123.3C233.7 -80.8 252.6 -40.4 271.5 0L0 0Z" fill="#102542"></path></g></svg>